<svg width="135" height="79" viewBox="0 0 135 79" fill="none" xmlns="http://www.w3.org/2000/svg">
<circle cx="23" cy="39.5" r="22.5" fill="#26242A" stroke="#31AD36"/>
<path d="M32.5 27.5C34.433 27.5 36 29.067 36 31C36 32.933 34.433 34.5 32.5 34.5C31.812 34.5 31.1708 34.3012 30.63 33.9582C29.945 33.5236 29.145 33.1673 28.3561 33.3563L21.3579 35.0328C21.1443 35.0839 21 35.2804 21 35.5V35.5C21 36.1982 20.8971 36.8722 20.7063 37.5082C20.4495 38.3636 20.5556 39.331 21.1871 39.9626L25.7003 44.4765C26.4307 45.207 27.5911 45.2174 28.5575 44.8527C29.1615 44.6247 29.8162 44.5 30.5 44.5C33.5376 44.5 36 46.9624 36 50C36 53.0376 33.5376 55.5 30.5 55.5C27.4624 55.5 25 53.0376 25 50C25 49.6728 25.0287 49.3524 25.0837 49.0411C25.2288 48.2188 25.1036 47.3273 24.5132 46.737L19.887 42.1115C19.1459 41.3704 17.9668 41.3598 17.0222 41.8137C16.1075 42.2533 15.0828 42.5 14 42.5C10.134 42.5 7 39.366 7 35.5C7 31.634 10.134 28.5 14 28.5C16.2839 28.5 18.3118 29.5939 19.5894 31.2863C20.1764 32.0639 21.1271 32.5748 22.0744 32.3471L27.6213 31.0138C28.4548 30.8135 29.0188 30.068 29.4315 29.3167C30.0263 28.2339 31.1772 27.5 32.5 27.5Z" fill="#31AD36"/>
<path d="M72.4073 35.4766C71.0593 36.4635 69.3904 36.9569 67.4006 36.9569C65.6675 36.9569 64.1711 36.5798 62.9115 35.8256C61.6598 35.0714 60.693 34.0163 60.011 32.6603C59.337 31.3044 59 29.7277 59 27.9305C59 26.1332 59.337 24.5566 60.011 23.2006C60.693 21.8447 61.6598 20.7896 62.9115 20.0354C64.1711 19.2812 65.6675 18.9041 67.4006 18.9041C69.3904 18.9041 71.0593 19.3734 72.4073 20.3122C73.7632 21.2429 74.718 22.7553 75.2716 24.8495H71.974C71.6129 23.9107 71.0593 23.2006 70.3131 22.7192C69.575 22.2298 68.6041 21.9851 67.4006 21.9851C66.3014 21.9851 65.3827 22.2298 64.6445 22.7192C63.9144 23.2087 63.3648 23.8987 62.9957 24.7893C62.6266 25.6799 62.4421 26.727 62.4421 27.9305C62.4421 29.134 62.6266 30.1811 62.9957 31.0717C63.3648 31.9623 63.9144 32.6523 64.6445 33.1417C65.3827 33.6312 66.3014 33.8759 67.4006 33.8759C68.6041 33.8759 69.575 33.6312 70.3131 33.1417C71.0593 32.6523 71.6129 31.9422 71.974 31.0115H75.2716C74.718 33.0013 73.7632 34.4897 72.4073 35.4766Z" fill="#DEDEDE"/>
<path d="M90.4816 29.3025V36.5958H87.1598V30.4579C87.1598 30.161 87.1438 29.7839 87.1117 29.3266C87.0796 28.8612 86.9793 28.3958 86.8108 27.9305C86.6423 27.4651 86.3655 27.076 85.9804 26.7631C85.6033 26.4501 85.0657 26.2937 84.3677 26.2937C84.0868 26.2937 83.786 26.3378 83.465 26.4261C83.1441 26.5143 82.8432 26.6868 82.5624 26.9436C82.2816 27.1923 82.0489 27.5614 81.8643 28.0508C81.6878 28.5403 81.5996 29.1902 81.5996 30.0005L80.6127 29.1099C80.6127 28.0829 80.7771 27.1 81.1061 26.1613C81.4351 25.2145 81.9125 24.4884 82.5383 23.9829C83.1722 23.4694 84.127 23.2127 85.4027 23.2127C86.4217 23.2127 87.2521 23.3852 87.894 23.7302C88.5359 24.0752 89.0333 24.5125 89.3864 25.042C89.7474 25.5716 90.0042 26.1252 90.1566 26.7029C90.3091 27.2726 90.4013 27.7941 90.4334 28.2675C90.4655 28.7409 90.4816 29.0859 90.4816 29.3025ZM81.5996 26.8353V36.5958H78.2778V19.2651H81.1904V24.2236C81.1904 24.6408 81.1302 25.0821 81.0098 25.5475C80.8895 26.0048 80.733 26.4341 80.5405 26.8353H81.5996Z" fill="#DEDEDE"/>
<path d="M103.604 36.3135C102.617 36.8912 101.474 37.18 100.174 37.18C98.8662 37.18 97.7189 36.8871 96.732 36.3014C95.7451 35.7157 94.9748 34.9094 94.4212 33.8823C93.8756 32.8473 93.6028 31.6598 93.6028 30.3199C93.6028 28.9639 93.8836 27.7725 94.4453 26.7454C95.0069 25.7104 95.7812 24.9041 96.7681 24.3264C97.755 23.7487 98.8903 23.4598 100.174 23.4598C101.482 23.4598 102.629 23.7527 103.616 24.3384C104.611 24.9241 105.385 25.7345 105.939 26.7695C106.493 27.7965 106.769 28.98 106.769 30.3199C106.769 31.6679 106.489 32.8593 105.927 33.8944C105.373 34.9214 104.599 35.7277 103.604 36.3135ZM97.8513 33.1001C98.3808 33.7821 99.1551 34.123 100.174 34.123C101.225 34.123 102.007 33.77 102.521 33.0639C103.042 32.3499 103.303 31.4352 103.303 30.3199C103.303 29.1645 103.038 28.2418 102.509 27.5518C101.987 26.8618 101.209 26.5168 100.174 26.5168C99.46 26.5168 98.8743 26.6772 98.4169 26.9982C97.9596 27.3191 97.6186 27.7644 97.3939 28.3341C97.1773 28.9038 97.069 29.5657 97.069 30.3199C97.069 31.4833 97.3297 32.41 97.8513 33.1001Z" fill="#DEDEDE"/>
<path d="M119.121 36.2774C118.222 36.8791 117.175 37.18 115.98 37.18C115.041 37.18 114.21 36.8791 113.488 36.2774C112.774 35.6756 112.217 34.8572 111.815 33.8222C111.422 32.7871 111.226 31.6197 111.226 30.3199C111.226 29.0201 111.422 27.8527 111.815 26.8177C112.217 25.7826 112.762 24.9642 113.452 24.3625C114.15 23.7607 114.937 23.4598 115.811 23.4598C117.055 23.4598 118.138 23.7567 119.061 24.3504C119.983 24.9442 120.697 25.7586 121.203 26.7936C121.716 27.8206 121.973 28.996 121.973 30.3199C121.973 31.6197 121.72 32.7871 121.215 33.8222C120.717 34.8572 120.019 35.6756 119.121 36.2774ZM114.018 33.774C114.427 34.103 114.973 34.2675 115.655 34.2675C116.313 34.2675 116.85 34.091 117.267 33.7379C117.693 33.3849 118.006 32.9115 118.206 32.3178C118.407 31.716 118.507 31.0501 118.507 30.3199C118.507 29.5978 118.403 28.9399 118.194 28.3461C117.985 27.7444 117.661 27.267 117.219 26.9139C116.778 26.5529 116.216 26.3724 115.534 26.3724C114.9 26.3724 114.387 26.5368 113.994 26.8658C113.601 27.1948 113.312 27.6561 113.127 28.2499C112.951 28.8436 112.862 29.5336 112.862 30.3199C112.862 31.1062 112.951 31.7962 113.127 32.39C113.312 32.9837 113.609 33.4451 114.018 33.774ZM112.646 36.2292C112.79 36.5983 112.862 37.0235 112.862 37.5049V42.5959H109.565V23.8209H112.453V24.1819C112.453 24.4788 112.369 24.8318 112.201 25.241C112.032 25.6502 111.852 25.9953 111.659 26.2761H112.862V35.1942H112.092C112.317 35.5151 112.501 35.8601 112.646 36.2292Z" fill="#DEDEDE"/>
<path d="M72.4073 58.4766C71.0593 59.4635 69.3904 59.9569 67.4006 59.9569C65.6675 59.9569 64.1711 59.5798 62.9115 58.8256C61.6598 58.0714 60.693 57.0163 60.011 55.6603C59.337 54.3044 59 52.7277 59 50.9305C59 49.1332 59.337 47.5566 60.011 46.2006C60.693 44.8447 61.6598 43.7896 62.9115 43.0354C64.1711 42.2812 65.6675 41.9041 67.4006 41.9041C69.3904 41.9041 71.0593 42.3734 72.4073 43.3122C73.7632 44.2429 74.718 45.7553 75.2716 47.8495H71.974C71.6129 46.9107 71.0593 46.2006 70.3131 45.7192C69.575 45.2298 68.6041 44.9851 67.4006 44.9851C66.3014 44.9851 65.3827 45.2298 64.6445 45.7192C63.9144 46.2087 63.3648 46.8987 62.9957 47.7893C62.6266 48.6799 62.4421 49.727 62.4421 50.9305C62.4421 52.134 62.6266 53.1811 62.9957 54.0717C63.3648 54.9623 63.9144 55.6523 64.6445 56.1417C65.3827 56.6312 66.3014 56.8759 67.4006 56.8759C68.6041 56.8759 69.575 56.6312 70.3131 56.1417C71.0593 55.6523 71.6129 54.9422 71.974 54.0115H75.2716C74.718 56.0013 73.7632 57.4897 72.4073 58.4766Z" fill="#DEDEDE"/>
<path d="M87.7791 59.2293C86.7922 59.807 85.6489 60.0959 84.3491 60.0959C83.0412 60.0959 81.8939 59.803 80.907 59.2173C79.9201 58.6316 79.1498 57.8252 78.5962 56.7982C78.0506 55.7632 77.7778 54.5757 77.7778 53.2358C77.7778 51.8798 78.0587 50.6883 78.6203 49.6613C79.1819 48.6263 79.9562 47.8199 80.9431 47.2422C81.93 46.6645 83.0653 46.3757 84.3491 46.3757C85.6569 46.3757 86.8043 46.6685 87.7911 47.2543C88.7861 47.84 89.5603 48.6503 90.1139 49.6854C90.6676 50.7124 90.9444 51.8958 90.9444 53.2358C90.9444 54.5837 90.6636 55.7752 90.1019 56.8102C89.5483 57.8372 88.774 58.6436 87.7791 59.2293ZM82.0263 56.0159C82.5558 56.6979 83.3301 57.0389 84.3491 57.0389C85.4001 57.0389 86.1824 56.6859 86.6959 55.9798C87.2175 55.2657 87.4782 54.351 87.4782 53.2358C87.4782 52.0804 87.2135 51.1577 86.6839 50.4677C86.1624 49.7776 85.3841 49.4326 84.3491 49.4326C83.635 49.4326 83.0493 49.5931 82.5919 49.914C82.1346 50.235 81.7936 50.6803 81.5689 51.25C81.3523 51.8196 81.244 52.4816 81.244 53.2358C81.244 54.3992 81.5047 55.3259 82.0263 56.0159Z" fill="#DEDEDE"/>
<path d="M97.218 41.9041V44.7925H93.9444V41.9041H97.218ZM97.218 46.5978V59.5959H93.9444V46.5978H97.218Z" fill="#DEDEDE"/>
<path d="M113.036 52.3025V59.5958H109.714V53.4579C109.714 53.161 109.698 52.7839 109.666 52.3266C109.634 51.8612 109.534 51.3958 109.365 50.9305C109.197 50.4651 108.92 50.076 108.535 49.7631C108.158 49.4501 107.62 49.2937 106.922 49.2937C106.641 49.2937 106.341 49.3378 106.02 49.4261C105.699 49.5143 105.398 49.6868 105.117 49.9436C104.836 50.1923 104.603 50.5614 104.419 51.0508C104.242 51.5403 104.154 52.1902 104.154 53.0005L102.794 52.1099C102.794 51.0829 102.931 50.1201 103.203 49.2215C103.484 48.3228 104.026 47.5967 104.828 47.0431C105.638 46.4895 106.682 46.2127 107.957 46.2127C108.976 46.2127 109.807 46.3852 110.449 46.7302C111.09 47.0752 111.588 47.5125 111.941 48.042C112.302 48.5716 112.559 49.1252 112.711 49.7029C112.864 50.2726 112.956 50.7941 112.988 51.2675C113.02 51.7408 113.036 52.0859 113.036 52.3025ZM104.13 49.053V59.5958H100.832V46.5978H103.721V46.9588C103.721 47.2557 103.637 47.6088 103.468 48.0179C103.3 48.4271 103.119 48.7722 102.927 49.053H104.13Z" fill="#DEDEDE"/>
</svg>
