<svg width="127" height="46" viewBox="0 0 127 46" fill="none" xmlns="http://www.w3.org/2000/svg">
<rect x="0.5" y="0.5" width="126" height="45" rx="11.5" fill="#555555" fill-opacity="0.3"/>
<rect x="0.5" y="0.5" width="126" height="45" rx="11.5" stroke="#E2E2E2"/>
<path d="M23.296 23.71C23.24 24.214 23.114 24.6853 22.918 25.124C22.722 25.5533 22.456 25.9267 22.12 26.244C21.784 26.5613 21.3733 26.8087 20.888 26.986C20.412 27.1633 19.8567 27.252 19.222 27.252C18.5313 27.252 17.9107 27.1353 17.36 26.902C16.8093 26.6687 16.3427 26.328 15.96 25.88C15.5773 25.432 15.2787 24.886 15.064 24.242C14.8587 23.5887 14.756 22.8467 14.756 22.016C14.756 21.176 14.868 20.4293 15.092 19.776C15.316 19.1227 15.6287 18.572 16.03 18.124C16.4313 17.676 16.9027 17.3353 17.444 17.102C17.9947 16.8687 18.5873 16.752 19.222 16.752C19.838 16.752 20.37 16.8313 20.818 16.99C21.266 17.1487 21.644 17.3727 21.952 17.662C22.2693 17.9513 22.5213 18.2967 22.708 18.698C22.904 19.0993 23.0533 19.5427 23.156 20.028L21.896 20.238C21.812 19.874 21.7 19.5473 21.56 19.258C21.4293 18.9593 21.2567 18.7073 21.042 18.502C20.8367 18.2967 20.5847 18.1427 20.286 18.04C19.9967 17.928 19.642 17.872 19.222 17.872C18.7273 17.872 18.284 17.9747 17.892 18.18C17.5093 18.376 17.1827 18.656 16.912 19.02C16.6507 19.3747 16.45 19.8087 16.31 20.322C16.17 20.826 16.1 21.386 16.1 22.002C16.1 22.618 16.17 23.1827 16.31 23.696C16.45 24.2 16.6507 24.634 16.912 24.998C17.1827 25.362 17.5093 25.642 17.892 25.838C18.284 26.034 18.732 26.132 19.236 26.132C19.6933 26.132 20.0807 26.076 20.398 25.964C20.7247 25.8427 20.9907 25.6747 21.196 25.46C21.4107 25.2453 21.5787 24.9887 21.7 24.69C21.8213 24.3913 21.91 24.0647 21.966 23.71H23.296ZM28.2824 27.224C27.7317 27.224 27.2417 27.1353 26.8124 26.958C26.3831 26.7807 26.0191 26.5287 25.7204 26.202C25.4217 25.8753 25.1931 25.474 25.0344 24.998C24.8757 24.522 24.7964 23.99 24.7964 23.402C24.7964 22.814 24.8804 22.282 25.0484 21.806C25.2164 21.33 25.4544 20.924 25.7624 20.588C26.0704 20.252 26.4391 19.9953 26.8684 19.818C27.3071 19.6313 27.7924 19.538 28.3244 19.538C28.8657 19.538 29.3511 19.6267 29.7804 19.804C30.2097 19.9813 30.5737 20.238 30.8724 20.574C31.1804 20.9007 31.4137 21.2973 31.5724 21.764C31.7311 22.2307 31.8104 22.758 31.8104 23.346C31.8104 23.9433 31.7264 24.48 31.5584 24.956C31.3997 25.432 31.1664 25.838 30.8584 26.174C30.5597 26.51 30.1911 26.7713 29.7524 26.958C29.3137 27.1353 28.8237 27.224 28.2824 27.224ZM28.2964 26.216C28.6884 26.216 29.0244 26.146 29.3044 26.006C29.5844 25.866 29.8131 25.67 29.9904 25.418C30.1771 25.166 30.3124 24.8673 30.3964 24.522C30.4804 24.1673 30.5224 23.78 30.5224 23.36C30.5224 22.9493 30.4804 22.5713 30.3964 22.226C30.3124 21.8807 30.1771 21.5867 29.9904 21.344C29.8131 21.092 29.5844 20.896 29.3044 20.756C29.0244 20.616 28.6884 20.546 28.2964 20.546C27.9044 20.546 27.5684 20.616 27.2884 20.756C27.0177 20.896 26.7891 21.092 26.6024 21.344C26.4251 21.5867 26.2944 21.8807 26.2104 22.226C26.1264 22.5713 26.0844 22.954 26.0844 23.374C26.0844 23.794 26.1264 24.1767 26.2104 24.522C26.2944 24.8673 26.4251 25.166 26.6024 25.418C26.7797 25.67 27.0084 25.866 27.2884 26.006C27.5684 26.146 27.9044 26.216 28.2964 26.216ZM33.7226 19.762H34.9266V20.868C35.2813 20.392 35.6733 20.0513 36.1026 19.846C36.5319 19.6407 36.9846 19.538 37.4606 19.538C38.2819 19.538 38.8886 19.762 39.2806 20.21C39.6819 20.658 39.8826 21.316 39.8826 22.184V27H38.6646V22.422C38.6646 21.75 38.5433 21.2787 38.3006 21.008C38.0579 20.728 37.6846 20.588 37.1806 20.588C36.9099 20.588 36.6393 20.6347 36.3686 20.728C36.1073 20.8213 35.8693 20.9707 35.6546 21.176C35.4213 21.3813 35.2439 21.6007 35.1226 21.834C35.0013 22.058 34.9406 22.352 34.9406 22.716V27H33.7226V19.762ZM41.987 19.762H43.191V20.868C43.5457 20.392 43.9377 20.0513 44.367 19.846C44.7963 19.6407 45.249 19.538 45.725 19.538C46.5463 19.538 47.153 19.762 47.545 20.21C47.9463 20.658 48.147 21.316 48.147 22.184V27H46.929V22.422C46.929 21.75 46.8077 21.2787 46.565 21.008C46.3223 20.728 45.949 20.588 45.445 20.588C45.1743 20.588 44.9037 20.6347 44.633 20.728C44.3717 20.8213 44.1337 20.9707 43.919 21.176C43.6857 21.3813 43.5083 21.6007 43.387 21.834C43.2657 22.058 43.205 22.352 43.205 22.716V27H41.987V19.762ZM56.5094 24.97C56.388 25.67 56.0754 26.2207 55.5714 26.622C55.0767 27.0233 54.3627 27.224 53.4294 27.224C52.328 27.224 51.4834 26.8927 50.8954 26.23C50.3074 25.558 50.0134 24.6247 50.0134 23.43C50.0134 22.8047 50.0974 22.2493 50.2654 21.764C50.4334 21.2787 50.6667 20.8727 50.9654 20.546C51.2734 20.2193 51.6374 19.972 52.0574 19.804C52.4774 19.6267 52.9347 19.538 53.4294 19.538C53.9894 19.538 54.47 19.6267 54.8714 19.804C55.2727 19.9813 55.5994 20.2287 55.8514 20.546C56.1127 20.854 56.304 21.2227 56.4254 21.652C56.556 22.0813 56.6214 22.5527 56.6214 23.066V23.682H51.2454C51.2454 24.046 51.292 24.3867 51.3854 24.704C51.488 25.012 51.628 25.2827 51.8054 25.516C51.992 25.74 52.2207 25.9173 52.4914 26.048C52.762 26.1787 53.0747 26.244 53.4294 26.244C54.036 26.244 54.4794 26.132 54.7594 25.908C55.0394 25.6747 55.2307 25.362 55.3334 24.97H56.5094ZM55.4034 22.772C55.4034 22.4267 55.366 22.114 55.2914 21.834C55.2167 21.554 55.1 21.316 54.9414 21.12C54.7827 20.9147 54.5774 20.756 54.3254 20.644C54.0734 20.532 53.77 20.476 53.4154 20.476C52.7714 20.476 52.2674 20.672 51.9034 21.064C51.5487 21.456 51.3387 22.0253 51.2734 22.772H55.4034ZM64.7877 24.55C64.6664 25.3807 64.3491 26.034 63.8357 26.51C63.3224 26.986 62.5991 27.224 61.6657 27.224C61.1151 27.224 60.6251 27.1353 60.1957 26.958C59.7757 26.7807 59.4211 26.5287 59.1317 26.202C58.8517 25.866 58.6371 25.4647 58.4877 24.998C58.3477 24.522 58.2777 23.99 58.2777 23.402C58.2777 22.8233 58.3571 22.296 58.5157 21.82C58.6744 21.344 58.9031 20.938 59.2017 20.602C59.5004 20.266 59.8644 20.0047 60.2937 19.818C60.7231 19.6313 61.2084 19.538 61.7497 19.538C62.6177 19.538 63.2897 19.7527 63.7657 20.182C64.2417 20.602 64.5451 21.1853 64.6757 21.932L63.4577 22.156C63.4111 21.9227 63.3457 21.708 63.2617 21.512C63.1871 21.316 63.0797 21.148 62.9397 21.008C62.7997 20.8587 62.6271 20.7467 62.4217 20.672C62.2257 20.588 61.9877 20.546 61.7077 20.546C61.3251 20.546 60.9984 20.6207 60.7277 20.77C60.4571 20.91 60.2331 21.1107 60.0557 21.372C59.8877 21.624 59.7617 21.9227 59.6777 22.268C59.6031 22.6133 59.5657 22.982 59.5657 23.374C59.5657 23.766 59.6031 24.1347 59.6777 24.48C59.7524 24.8253 59.8737 25.1287 60.0417 25.39C60.2097 25.642 60.4291 25.8427 60.6997 25.992C60.9704 26.1413 61.3017 26.216 61.6937 26.216C62.2817 26.216 62.7157 26.0667 62.9957 25.768C63.2851 25.4693 63.4717 25.0633 63.5557 24.55H64.7877ZM67.036 20.728H65.916V19.762H67.036V17.788H68.254V19.762H70.172V20.728H68.254V24.97C68.254 25.3247 68.3334 25.6093 68.492 25.824C68.6507 26.0387 68.8934 26.146 69.22 26.146C69.4254 26.146 69.6027 26.132 69.752 26.104C69.9107 26.076 70.0554 26.0387 70.186 25.992L70.396 26.93C70.2094 26.9953 70.004 27.0467 69.78 27.084C69.5654 27.1307 69.3087 27.154 69.01 27.154C68.5994 27.154 68.268 27.0933 68.016 26.972C67.764 26.8507 67.5634 26.678 67.414 26.454C67.2647 26.23 67.162 25.964 67.106 25.656C67.0594 25.348 67.036 25.012 67.036 24.648V20.728ZM74.3208 19.762H75.6508L77.1068 25.53L78.7728 19.804H80.0048L81.6288 25.53L83.0708 19.762H84.3588L82.2448 27H80.9568L79.3328 21.232L77.6948 27H76.4208L74.3208 19.762ZM90.2023 26.006C89.941 26.3233 89.6097 26.5987 89.2083 26.832C88.807 27.056 88.3077 27.168 87.7103 27.168C87.3463 27.168 87.0103 27.1213 86.7023 27.028C86.4037 26.944 86.1423 26.8133 85.9183 26.636C85.7037 26.4493 85.5357 26.2207 85.4143 25.95C85.293 25.6793 85.2323 25.362 85.2323 24.998C85.2323 24.5033 85.335 24.102 85.5403 23.794C85.755 23.486 86.035 23.2433 86.3803 23.066C86.735 22.8887 87.1317 22.7627 87.5703 22.688C88.009 22.6133 88.4617 22.5667 88.9283 22.548L90.1743 22.506V22.226C90.1743 21.61 90.0437 21.1667 89.7823 20.896C89.521 20.6253 89.0963 20.49 88.5083 20.49C87.9297 20.49 87.505 20.588 87.2343 20.784C86.9637 20.9707 86.7863 21.232 86.7023 21.568L85.5963 21.442C85.727 20.7793 86.0397 20.2987 86.5343 20C87.029 19.692 87.701 19.538 88.5503 19.538C89.073 19.538 89.5117 19.6033 89.8663 19.734C90.2303 19.8553 90.5243 20.0327 90.7483 20.266C90.9723 20.4993 91.131 20.7887 91.2243 21.134C91.327 21.4793 91.3783 21.8667 91.3783 22.296V27H90.2023V26.006ZM90.1743 23.374L89.0123 23.416C88.5177 23.4347 88.107 23.4813 87.7803 23.556C87.4537 23.6307 87.1923 23.7333 86.9963 23.864C86.8097 23.9853 86.6743 24.1393 86.5903 24.326C86.5157 24.5127 86.4783 24.7273 86.4783 24.97C86.4783 25.334 86.5857 25.628 86.8003 25.852C87.0243 26.0667 87.3883 26.174 87.8923 26.174C88.611 26.174 89.171 25.9967 89.5723 25.642C89.9737 25.2873 90.1743 24.802 90.1743 24.186V23.374ZM93.5355 17.004H94.7535V27H93.5355V17.004ZM96.9601 17.004H98.1781V27H96.9601V17.004ZM106.615 24.97C106.493 25.67 106.181 26.2207 105.677 26.622C105.182 27.0233 104.468 27.224 103.535 27.224C102.433 27.224 101.589 26.8927 101.001 26.23C100.413 25.558 100.119 24.6247 100.119 23.43C100.119 22.8047 100.203 22.2493 100.371 21.764C100.539 21.2787 100.772 20.8727 101.071 20.546C101.379 20.2193 101.743 19.972 102.163 19.804C102.583 19.6267 103.04 19.538 103.535 19.538C104.095 19.538 104.575 19.6267 104.977 19.804C105.378 19.9813 105.705 20.2287 105.957 20.546C106.218 20.854 106.409 21.2227 106.531 21.652C106.661 22.0813 106.727 22.5527 106.727 23.066V23.682H101.351C101.351 24.046 101.397 24.3867 101.491 24.704C101.593 25.012 101.733 25.2827 101.911 25.516C102.097 25.74 102.326 25.9173 102.597 26.048C102.867 26.1787 103.18 26.244 103.535 26.244C104.141 26.244 104.585 26.132 104.865 25.908C105.145 25.6747 105.336 25.362 105.439 24.97H106.615ZM105.509 22.772C105.509 22.4267 105.471 22.114 105.397 21.834C105.322 21.554 105.205 21.316 105.047 21.12C104.888 20.9147 104.683 20.756 104.431 20.644C104.179 20.532 103.875 20.476 103.521 20.476C102.877 20.476 102.373 20.672 102.009 21.064C101.654 21.456 101.444 22.0253 101.379 22.772H105.509ZM109.041 20.728H107.921V19.762H109.041V17.788H110.259V19.762H112.177V20.728H110.259V24.97C110.259 25.3247 110.338 25.6093 110.497 25.824C110.656 26.0387 110.898 26.146 111.225 26.146C111.43 26.146 111.608 26.132 111.757 26.104C111.916 26.076 112.06 26.0387 112.191 25.992L112.401 26.93C112.214 26.9953 112.009 27.0467 111.785 27.084C111.57 27.1307 111.314 27.154 111.015 27.154C110.604 27.154 110.273 27.0933 110.021 26.972C109.769 26.8507 109.568 26.678 109.419 26.454C109.27 26.23 109.167 25.964 109.111 25.656C109.064 25.348 109.041 25.012 109.041 24.648V20.728Z" fill="#E2E2E2"/>
</svg>
